<svg width="2703" height="1825" viewBox="0 0 2703 1825" fill="none" xmlns="http://www.w3.org/2000/svg">
<g clip-path="url(#clip0)">
<path d="M2703 0H0V1825H2703V0Z" fill="#F6F6F6"/>
<path d="M696.811 1060.57V1310.43H481.234V1064.48C517.342 1097.73 696.811 1060.57 696.811 1060.57Z" fill="#C78982"/>
<path d="M480.234 1100.33V1016.04H695.811V1196.63C660.776 1196.63 636.431 1196.63 607.665 1186.85C561.167 1171.31 513.896 1138.63 480.234 1100.33Z" fill="#99644D"/>
<path d="M374.492 819.529C374.492 813.856 374.747 808.27 375.176 802.768C375.837 794.978 376.938 787.232 378.471 779.565C378.471 778.712 378.471 777.816 378.471 776.963C378.471 665.386 457.801 573.387 560.327 560.08C568.838 558.957 577.414 558.388 586 558.373C700.591 558.373 793.529 656.472 793.529 776.963C793.529 777.772 793.529 778.583 793.529 779.395C795.886 791.344 797.204 803.473 797.466 815.647C797.466 816.971 797.466 818.25 797.466 819.571C797.466 819.571 798.15 828.103 797.766 843.159C797.509 852.926 796.951 862.606 795.925 872.289C795.667 874.892 795.412 877.45 794.983 880.01C793.73 890.415 792.045 900.724 789.934 910.931C786.256 928.817 781.266 946.407 775.002 963.563C763.933 994.113 749.038 1023.15 730.672 1049.98L729.815 1051.3C726.693 1055.78 723.526 1060.25 720.146 1064.61C708.198 1080.55 695.02 1095.53 680.735 1109.43L679.58 1110.5C621.729 1174.48 554.078 1177.25 492.42 1110.5C492.068 1110.12 491.696 1109.77 491.307 1109.43C470.24 1088.85 451.582 1065.95 435.681 1041.19C425.713 1025.79 416.859 1009.7 409.192 993.037C399.727 972.583 392.11 951.33 386.43 929.527C380.573 907.379 376.821 884.73 375.218 861.881C374.705 855.655 374.405 849.341 374.234 843.073C374.234 840.811 374.234 838.808 374.234 836.633C373.977 825.755 374.492 819.529 374.492 819.529Z" fill="#C78982"/>
<path d="M356.04 1180.18C379.717 1189.64 414.861 1197 482 1197C482 1197 482.852 1100.56 480.5 1098C478.148 1095.44 474.93 1090.74 472.665 1088.18C470.4 1085.62 468.093 1082.94 465.871 1080.34C463.648 1077.74 461.812 1075.48 459.844 1072.96C459.418 1072.49 459.076 1072.02 458.69 1071.55C457.121 1069.81 455.694 1067.94 454.418 1065.97C432.28 1025.81 425.144 1012.89 415.527 952.87C406.51 896.512 412.536 844.375 463.735 823.486C534.632 794.281 585.615 727.437 608.179 654.326C608.179 729.27 661.129 793.643 712.411 825.148C762.71 856.054 753.693 915.353 749.719 953.04C743.395 1012.72 715.902 1062.86 696.5 1093L694.162 1354.2L698.436 1355.14C848.009 1388.13 975.319 1244.3 924.123 1100.41L789.291 708.381C770.744 636.166 717.325 578.655 649.847 556.274C637.767 552.212 625.311 549.355 612.666 547.749C604.167 546.614 595.601 546.03 587.025 546C502.623 546 427.922 601.42 396.512 678.155C393.689 685.104 390.828 691.84 387.963 698.577L294.544 979.387C271.338 1039.79 261.979 1142.79 356.04 1180.18Z" fill="black"/>
<path d="M911.486 1350.01C911.486 1350.01 897.494 1289.45 910.411 1261.17L917.3 1246.11L756.236 1313.83L911.486 1350.01Z" fill="black"/>
<path d="M961.823 1825C961.805 1824.89 961.805 1824.77 961.823 1824.66H215.178C215.178 1824.66 215.178 1824.87 215.178 1825H0V1824.4L87.5084 1534.76L105.515 1475.01C122.623 1403.17 193.365 1349.78 267.529 1337.1L440.706 1295.74C452.231 1292.97 462.489 1286.41 469.829 1277.13C477.166 1267.84 481.16 1256.35 481.168 1244.52V1196.63H695.875V1244.52C695.89 1256.37 699.902 1267.87 707.266 1277.16C714.63 1286.45 724.916 1293 736.465 1295.74L909.685 1337.18C983.807 1349.99 1054.59 1403.26 1071.7 1475.09L1177 1825H961.823Z" fill="#276EF1"/>
<path d="M956.468 1825H789.284L255.223 1290.64H422.281L956.468 1825Z" fill="#F6F6F6"/>
<path d="M669.694 818.298C659.358 818.312 649.154 820.596 639.82 824.982C630.486 829.371 622.249 835.751 615.71 843.662L611.788 848.395C606.354 854.963 603.383 863.186 603.38 871.672C603.38 873.809 602.52 875.86 600.991 877.369C599.463 878.881 597.391 879.729 595.23 879.729H571.946C569.815 879.685 567.785 878.816 566.293 877.31C564.804 875.803 563.969 873.78 563.969 871.672C563.905 863.162 560.857 854.933 555.346 848.395L551.466 843.707C544.932 835.736 536.688 829.306 527.326 824.881C517.967 820.457 507.726 818.149 497.351 818.127H411.849C411.71 818.127 411.579 818.181 411.482 818.278C411.385 818.372 411.331 818.503 411.331 818.639V893.67C411.343 913.654 419.379 932.814 433.674 946.94C447.969 961.066 467.354 969.002 487.563 969.002C504.485 968.997 520.923 963.423 534.282 953.154C547.642 942.887 557.162 928.512 561.338 912.3C562.639 906.853 565.659 901.955 569.963 898.318C573.75 895.245 578.495 893.566 583.393 893.566C588.292 893.566 593.037 895.245 596.826 898.318C601.133 901.969 604.153 906.883 605.449 912.342C609.553 928.225 618.78 942.348 631.737 952.573C644.694 962.797 660.669 968.564 677.241 969.002C720.617 970.281 755.758 934.214 755.758 891.327V818.936C755.758 818.802 755.704 818.671 755.607 818.575C755.511 818.478 755.379 818.426 755.241 818.426L669.694 818.298Z" fill="black"/>
<path d="M608.177 1033.47C604.773 1031.51 600.791 1030.63 596.814 1030.95C592.837 1031.26 589.07 1032.77 586.065 1035.24C583.059 1032.77 579.295 1031.26 575.315 1030.95C571.338 1030.63 567.356 1031.51 563.952 1033.47L530.27 1053.02L536.502 1058.07C550.264 1069.25 567.837 1075.4 586.022 1075.41C604.208 1075.4 621.781 1069.25 635.543 1058.07L641.775 1053.02L608.177 1033.47Z" fill="#99644D"/>
<path d="M2103.18 1387.12H1795.92L1795.97 1235.66L1795.92 978.934H2103.18V1387.12Z" fill="#FFAFA1"/>
<path d="M1202.5 1824L1262 1567.5C1290.6 1465.6 1349.77 1383.12 1447.5 1359.17L1679.75 1302.1C1747.27 1285.52 1795.09 1290.47 1794.92 1216.87V1208H1836.02C1841.26 1208 1846.46 1208.92 1851.39 1210.73C1857.25 1212.85 1862.64 1216.11 1867.23 1220.32L1946.21 1292.6L2032.61 1219.25C2036.9 1215.57 2041.81 1212.69 2047.12 1210.73C2052.05 1208.94 2057.25 1208.02 2062.49 1208H2104.61V1216.87C2104.61 1290.38 2152.22 1285.39 2219.77 1302.1L2452.02 1359.17C2549.77 1383.16 2627.8 1460.94 2656.42 1562.84L2699.5 1824H1202.5Z" fill="black"/>
<path d="M2140.43 837.481L2132.92 993.776C2158.79 988.019 2183.32 957.581 2190.6 931.884L2206.09 876.427C2207.95 868.224 2207.58 859.666 2205 851.656C2202.45 843.648 2197.79 836.486 2191.52 830.92C2187.75 827.919 2183.44 825.705 2178.83 824.409C2174.22 823.11 2169.39 822.759 2164.63 823.37C2159.88 823.981 2155.29 825.544 2151.13 827.969C2146.99 830.39 2143.37 833.626 2140.47 837.481H2140.43Z" fill="#FFAFA1"/>
<path d="M1760.89 837.481L1768.67 993.776C1741.92 988.019 1716.56 957.581 1709.05 931.884L1693.03 876.427C1691.13 868.211 1691.54 859.647 1694.21 851.639C1696.89 843.628 1701.73 836.471 1708.22 830.92C1712.11 827.919 1716.57 825.705 1721.34 824.409C1726.11 823.11 1731.1 822.759 1736.02 823.37C1740.94 823.981 1745.68 825.544 1749.96 827.969C1754.25 830.39 1758 833.626 1760.98 837.481H1760.89Z" fill="#FFAFA1"/>
<path d="M2178.11 826.061L2171.18 862.019C2169.94 868.51 2168 876.412 2165.6 885.293C2144.49 963.359 2084.94 1119.15 2084.94 1119.15C2073.76 1145.77 2054.95 1168.5 2030.86 1184.48C2006.77 1200.47 1978.49 1209 1949.55 1209C1920.62 1209 1892.33 1200.47 1868.25 1184.48C1844.16 1168.5 1825.34 1145.77 1814.17 1119.15C1814.17 1119.15 1754.61 963.317 1733.5 885.293C1731.1 876.412 1729.22 868.552 1727.93 862.019L1721 826.19C1693.6 684.834 1798.41 550.27 1942.57 546H1949.55H1956.53C2100.61 550.27 2205.52 684.834 2178.11 826.061Z" fill="#FFAFA1"/>
<path d="M2182.45 772.947C2178.86 652.85 2085.23 549.619 1962.29 546H1955.52H1949.61H1943.74H1936.94C1813.73 549.619 1720.34 652.85 1716.7 772.947C1716.15 796.332 1719.03 819.676 1725.26 842.235L1741.4 902.239H1768.9L1761.36 885.204C1743.57 844.769 1742.6 798.972 1758.66 757.826C1764.53 742.375 1768.33 726.225 1769.97 709.789L1771.77 693.691C1774.38 683.694 1779.43 674.491 1786.48 666.896C1793.52 659.304 1802.34 653.552 1812.15 650.156C1821.96 646.756 1832.46 645.816 1842.72 647.414C1852.99 649.015 1862.69 653.104 1870.99 659.324C1893.54 676.29 1921.05 685.468 1949.33 685.468C1977.61 685.468 2005.12 676.29 2027.68 659.324C2038.56 651.044 2051.88 646.554 2065.58 646.549C2079.61 646.507 2093.25 651.108 2104.36 659.628C2115.47 668.148 2123.43 680.102 2126.95 693.607L2128.7 709.704C2130.36 726.138 2134.18 742.285 2140.05 757.742C2156.09 798.89 2155.12 844.68 2137.35 885.12L2129.82 902.155H2157.3L2173.46 842.149C2179.8 819.634 2182.82 796.325 2182.45 772.947Z" fill="#7C4F40"/>
<path d="M2158 899.5L2107.94 1088.54C2098.16 1123.23 2077.4 1153.76 2048.81 1175.5C2020.22 1197.24 1985.36 1209 1949.52 1209C1913.68 1209 1878.82 1197.24 1850.23 1175.5C1821.64 1153.76 1800.89 1123.23 1791.11 1088.54L1740 897L1768.5 901L1805.66 985.483C1818.07 1020.34 1863.76 1017.84 1886.98 1005.18L1908.45 993.43C1921.01 986.587 1935.07 983.004 1949.35 983.004C1963.63 983.004 1977.69 986.587 1990.25 993.43L2011.72 1005.18C2034.95 1017.84 2080.63 1020.34 2093.04 985.483L2130 901.5L2158 899.5Z" fill="#7C4F40"/>
<path d="M2111.76 786.372L2090.11 783.403L2088.31 783.015L2073.56 780.605C2060.29 778.421 2046.81 777.973 2033.43 779.272C2022.66 780.353 2012.34 784.212 2003.48 790.476C1994.63 796.74 1987.53 805.196 1982.87 815.027C1981.51 817.862 1979.22 820.135 1976.37 821.454C1973.53 822.773 1970.32 823.057 1967.3 822.256C1957.33 819.487 1946.8 819.487 1936.84 822.256C1933.81 823.057 1930.6 822.773 1927.76 821.454C1924.92 820.135 1922.62 817.862 1921.27 815.027C1916.61 805.196 1909.51 796.74 1900.65 790.476C1891.79 784.212 1881.48 780.353 1870.71 779.272C1857.33 777.973 1843.84 778.421 1830.58 780.605L1815.82 783.015L1814.03 783.403L1792.29 786.327C1784.53 787.257 1777.45 791.233 1772.6 797.391C1767.74 803.55 1765.5 811.39 1766.37 819.2C1766.64 821.39 1767.25 823.522 1768.17 825.526C1772.72 834.986 1776.71 844.714 1780.1 854.654C1781.86 859.898 1784.06 864.982 1786.69 869.843C1791.87 879.551 1798.84 888.182 1807.22 895.272C1815.63 902.721 1825.55 908.236 1836.29 911.432C1847.03 914.626 1858.34 915.425 1869.42 913.772C1883.42 911.662 1896.43 905.262 1906.68 895.446C1916.93 885.629 1923.92 872.871 1926.7 858.914C1927.25 855.814 1927.61 852.679 1927.77 849.535C1927.88 846.542 1928.96 843.667 1930.83 841.339C1932.7 839.014 1935.28 837.359 1938.17 836.626C1947.23 834.39 1956.69 834.39 1965.76 836.626C1968.64 837.359 1971.22 839.014 1973.09 841.339C1974.97 843.667 1976.04 846.542 1976.15 849.535C1976.31 852.679 1976.67 855.814 1977.22 858.914C1980.01 872.864 1987.01 885.612 1997.25 895.421C2007.51 905.227 2020.51 911.622 2034.5 913.73C2045.59 915.402 2056.91 914.616 2067.67 911.427C2078.43 908.238 2088.37 902.726 2096.78 895.272C2105.17 888.224 2112.15 879.637 2117.36 869.972C2119.99 865.111 2122.19 860.029 2123.95 854.785C2127.34 844.842 2131.33 835.117 2135.89 825.655C2136.81 823.651 2137.4 821.518 2137.67 819.329C2138.57 811.504 2136.34 803.642 2131.48 797.465C2126.62 791.287 2119.53 787.299 2111.76 786.372ZM1916.09 856.549C1913.79 868.129 1907.99 878.715 1899.48 886.861C1890.97 895.008 1880.18 900.319 1868.57 902.071C1859.37 903.419 1850 902.744 1841.09 900.092C1832.19 897.44 1823.96 892.873 1816.98 886.71C1810 880.862 1804.2 873.737 1799.86 865.712C1795.6 857.649 1792.71 848.922 1791.31 839.897C1790.85 837.138 1790.68 834.343 1790.8 831.55C1791.22 822.352 1794.77 813.58 1800.85 806.695C1806.93 799.812 1815.18 795.236 1824.21 793.729L1836.44 791.75C1847.45 789.932 1858.66 789.556 1869.76 790.632C1877.05 791.342 1884.1 793.596 1890.45 797.245C1896.81 800.894 1902.33 805.854 1906.64 811.801C1909.93 816.447 1912.22 821.739 1913.36 827.332C1914.3 831.637 1915.36 837.789 1916.18 842.477C1916.97 847.138 1916.94 851.9 1916.09 856.549ZM2113.43 831.637C2113.54 834.427 2113.37 837.225 2112.91 839.983C2111.51 849.008 2108.62 857.734 2104.36 865.798C2100.03 873.824 2094.22 880.949 2087.24 886.794C2080.26 892.959 2072.03 897.526 2063.13 900.178C2054.22 902.83 2044.85 903.503 2035.65 902.155C2024.04 900.403 2013.25 895.094 2004.74 886.948C1996.24 878.801 1990.44 868.215 1988.13 856.633C1987.31 851.979 1987.31 847.217 1988.13 842.564C1988.9 837.873 1990.01 831.637 1990.95 827.419C1992.09 821.825 1994.37 816.533 1997.67 811.885C2001.98 805.96 2007.5 801.02 2013.85 797.386C2020.19 793.754 2027.23 791.51 2034.5 790.803C2045.61 789.729 2056.81 790.105 2067.82 791.921L2080.06 793.9C2089.09 795.406 2097.33 799.986 2103.41 806.868C2109.49 813.75 2113.04 822.523 2113.47 831.721L2113.43 831.637Z" fill="white"/>
<path d="M2420.35 1303.01L1928.56 1797.35L1925.82 1800.09L1926.63 1800.26H1759.52L1758.75 1800.09L1761.11 1797.7L1761.45 1797.35L2253.32 1303.01H2420.35Z" fill="#F6F6F6"/>
<path d="M2509.09 1816.5C2506.44 1809.18 2503.73 1801.91 2500.84 1794.72C2455.84 1683.47 2377.91 1588.45 2277.35 1522.3C2176.8 1456.15 2058.4 1421.98 1937.88 1424.35C1817.35 1426.71 1700.39 1465.49 1602.54 1535.53C1504.69 1605.57 1430.57 1703.56 1390.02 1816.5C1389.04 1819.34 1388.01 1822.19 1387.07 1825H1496.2C1497.44 1822.15 1498.68 1819.3 1499.96 1816.5C1537.24 1732.55 1597.51 1660.73 1673.88 1609.26C1750.25 1557.78 1839.65 1528.72 1931.84 1525.4C2024.03 1522.07 2115.3 1544.62 2195.21 1590.47C2275.12 1636.31 2340.47 1703.6 2383.75 1784.65C2389.35 1795.02 2394.56 1805.65 2399.32 1816.5C2400.6 1819.34 2401.84 1822.19 2403.03 1825H2512.04L2509.09 1816.5Z" fill="#CBCBCB"/>
<path d="M1592.74 1770.9C1566.23 1780.27 1538.05 1785.4 1512.02 1796.95C1511.25 1797.29 1494.87 1816.83 1484.32 1821.19C1480.42 1822.66 1476.46 1823.94 1472.44 1825H1314.87L1315.13 1819.99C1315.32 1817.92 1315.32 1815.83 1315.13 1813.75L1312.98 1793.65C1312.65 1790.95 1312.65 1788.23 1312.98 1785.53C1313.51 1780.59 1315.12 1775.83 1317.69 1771.59C1320.26 1767.34 1323.73 1763.7 1327.86 1760.94H1328.12L1336.01 1755.51C1346.33 1748.34 1354.66 1738.69 1360.24 1727.45L1367.92 1711.8C1369.74 1707.28 1372.51 1703.21 1376.04 1699.85C1379.57 1696.48 1383.77 1693.91 1388.38 1692.3H1389.02L1391.47 1691.61L1401.93 1688.62C1412.3 1685.58 1421.66 1679.82 1429.04 1671.94L1435.38 1665.27C1439.01 1661.36 1443.5 1658.36 1448.49 1656.49C1453.49 1654.62 1458.85 1653.93 1464.16 1654.49C1466.98 1654.8 1469.74 1655.46 1472.39 1656.46C1475.03 1657.44 1477.54 1658.75 1479.86 1660.35L1515.58 1678.87C1525.69 1684.2 1534.47 1691.71 1541.31 1700.85L1592.74 1770.9Z" fill="#FFAFA1"/>
<path d="M2615.83 1823.12L2615.34 1825H2383.51L2380.68 1824.06C2369.9 1820.35 2347.03 1798.94 2336.1 1795.57L2385.91 1730.44C2392.82 1721.33 2401.67 1713.84 2411.85 1708.52L2447.83 1690.05C2450.19 1688.46 2452.71 1687.15 2455.39 1686.17C2461.78 1683.78 2468.77 1683.34 2475.41 1684.91C2482.05 1686.47 2488.07 1689.98 2492.68 1694.96L2499.08 1701.61C2506.53 1709.34 2515.93 1714.96 2526.31 1717.9L2536.84 1720.89L2539.32 1721.57H2539.96C2544.59 1723.18 2548.81 1725.75 2552.35 1729.11C2555.92 1732.46 2558.69 1736.52 2560.53 1741.02L2568.31 1756.63C2573.88 1767.85 2582.31 1777.48 2592.72 1784.61L2600.62 1790.03H2600.87C2605.03 1792.79 2608.52 1796.42 2611.1 1800.65C2613.68 1804.89 2615.29 1809.63 2615.83 1814.55C2616.21 1817.39 2616.21 1820.28 2615.83 1823.12Z" fill="#FFAFA1"/>
<path d="M2730 1825L1171 1824.7L1267.72 1821.84C1284.37 1821.33 1300.98 1820.4 1317.57 1819.07C1350.84 1816.4 1383.94 1812.01 1416.75 1805.92C1430.26 1803.45 1443.74 1800.6 1457.19 1797.39C1497.74 1788.11 1537.65 1776.31 1576.68 1762.05L1577.33 1761.79C1590.55 1756.95 1603.69 1751.83 1616.74 1746.43C1624.56 1743.21 1632.35 1739.88 1640.11 1736.44L1641.93 1735.67C1665.27 1725.37 1688.87 1716.24 1712.73 1708.27L1716.35 1707.07L1721.87 1705.24C1725.62 1704 1729.42 1702.81 1733.17 1701.7C1744.67 1698.11 1756.33 1694.81 1768.14 1691.79C1894.7 1658.91 2027.5 1657.45 2154.77 1687.53C2182.03 1693.95 2208.94 1701.77 2235.41 1710.96C2246.64 1714.83 2257.84 1718.98 2268.99 1723.42C2272.95 1724.96 2276.92 1726.54 2280.86 1728.2L2322.59 1745.27C2340.67 1752.7 2358.91 1759.61 2377.27 1766.02C2390.59 1770.62 2403.96 1774.89 2417.38 1778.82C2441.32 1786.02 2465.44 1792.29 2489.76 1797.64C2500.71 1800.06 2511.72 1802.28 2522.72 1804.3C2547.91 1808.97 2573.2 1812.62 2598.62 1815.27C2611.19 1816.59 2623.84 1817.66 2636.46 1818.51H2640.05L2730 1825Z" fill="white"/>
<path d="M1978.8 1032.89C1974.15 1031.33 1969.27 1030.67 1964.39 1030.94C1955.31 1031.4 1946.27 1031.4 1937.2 1030.94C1932.32 1030.67 1927.43 1031.33 1922.78 1032.89L1880.17 1047.98L1888.08 1051.92C1907.79 1061.14 1929.19 1065.78 1950.79 1065.51C1972.39 1065.78 1993.8 1061.14 2013.51 1051.92L2021.41 1047.98L1978.8 1032.89Z" fill="#FFAFA1"/>
</g>
<defs>
<clipPath id="clip0">
<rect width="2703" height="1825" fill="white"/>
</clipPath>
</defs>
</svg>
