<svg xmlns="http://www.w3.org/2000/svg" height="800" width="1200" id="svg48" version="1.1" viewBox="-187.653 -108.51775 1626.326 651.1065" style="background-color: #000000"><defs id="defs36"><style id="style34">.cls-1{fill:#fff}</style></defs><path id="path40" d="M168.88 376.77c59.13 0 104.85-45.73 104.85-113.4V0h64v426.76h-63.39v-39.63c-28.65 29.87-68.27 46.94-112.78 46.94C70.11 434.07 0 367.62 0 267.07V.07h64v263.3c0 68.89 45.11 113.4 104.86 113.4" class="cls-1"/><path id="path42" d="M385.3.01h61.57v155.46a153.73 153.73 0 01110.34-46.34c91.45 0 163.38 72.55 163.38 162.78 0 89.62-71.93 162.16-163.38 162.16a155.13 155.13 0 01-111-46.33v39h-61zm167.65 379.81c58.53 0 106.69-48.17 106.69-107.91 0-60.36-48.16-107.91-106.69-107.91-59.14 0-107.3 47.55-107.3 107.91 0 59.74 47.55 107.91 107.3 107.91" class="cls-1"/><path id="path44" d="M904.72 109.74c89.61 0 155.46 68.89 155.46 161.56v20.12H807.21c8.54 50.6 50.6 88.4 103 88.4 36 0 66.46-14.64 89.62-45.73l44.51 32.92c-31.1 41.46-77.43 66.45-134.13 66.45-93.27 0-165.21-69.5-165.21-162.16 0-87.79 68.89-161.56 159.73-161.56M808.4 242.65H998c-10.36-47.56-48.77-79.26-94.49-79.26-45.72 0-84.13 31.7-95.11 79.26" class="cls-1"/><path id="path46" d="M1225.39 170.71c-40.24 0-69.5 31.09-69.5 79.25v176.8h-61.58V115.84h61v38.44c15.24-25 40.24-40.85 74.38-40.85h21.33v57.31z" class="cls-1"/></svg>